<svg width="43" height="36" viewBox="0 0 43 36" fill="none" xmlns="http://www.w3.org/2000/svg">
    <path d="M35.4123 0.88916H12.6462C10.6351 0.88916 8.70425 1.67873 7.28233 3.08714C5.86041 4.49251 5.05846 6.40088 5.05846 8.39156V19.6406C3.71673 19.6406 2.43053 20.168 1.48053 21.1039C0.530522 22.0398 0 23.314 0 24.6401V28.3898C0 30.3774 0.798867 32.2858 2.22387 33.6942C3.64579 35.0996 5.57664 35.8922 7.59078 35.8922H25.2954C27.3064 35.8922 29.2373 35.1026 30.6623 33.6942C32.0842 32.2889 32.8862 30.3805 32.8862 28.3898V17.1408H37.9446C39.2863 17.1408 40.5726 16.6134 41.5226 15.6775C42.4726 14.7386 43.0031 13.4673 43.0031 12.1412V8.39156C43.0031 6.40392 42.2042 4.49555 40.7792 3.08714C39.3573 1.68177 37.4264 0.88916 35.4123 0.88916ZM7.58769 30.8896C6.91837 30.8896 6.27372 30.6274 5.79872 30.158C5.32372 29.6885 5.05846 29.0544 5.05846 28.3898V24.6401H17.7046V28.3898C17.7046 29.2434 17.8557 30.0878 18.1457 30.8896H7.58769ZM27.8246 8.38851V28.3868C27.8277 29.094 27.5285 29.7738 26.998 30.2494C26.4675 30.725 25.7581 30.9567 25.0425 30.8865C24.404 30.8073 23.8179 30.4963 23.3954 30.0116C22.9759 29.53 22.7507 28.9111 22.7662 28.274V24.6371C22.7662 23.311 22.2326 22.0398 21.2856 21.1008C20.3356 20.1619 19.0494 19.6375 17.7077 19.6375H10.12V8.38851C10.12 7.72698 10.3853 7.08984 10.8603 6.62037C11.3353 6.1509 11.9768 5.88872 12.6492 5.88872H28.2688C27.9788 6.69048 27.8277 7.53797 27.8277 8.38851H27.8246ZM37.9415 12.1382H32.8831V8.38851C32.8831 7.49529 33.3642 6.66914 34.1477 6.22406C34.9311 5.77898 35.8935 5.77898 36.6769 6.22406C37.4604 6.66914 37.9415 7.49529 37.9415 8.38851V12.1382Z" fill="white"/>
</svg>
