<svg width="34" height="40" viewBox="0 0 34 40" fill="none" xmlns="http://www.w3.org/2000/svg">
    <g clip-path="url(#clip0_1909_17177)">
        <path d="M14.8396 39.8864H21.0211C22.3882 39.8864 23.4948 38.7954 23.4948 37.4477C23.4948 36.1 22.3882 35.009 21.0211 35.009H14.8396C13.4725 35.009 12.3658 36.1 12.3658 37.4477C12.3658 38.7954 13.4725 39.8864 14.8396 39.8864Z" fill="white"/>
        <path d="M26.0011 22.2516C25.4885 22.0029 24.9623 21.7756 24.4252 21.5751C25.8221 19.853 26.5816 17.7165 26.5816 15.5132V10.6385C26.5816 7.15697 24.6965 3.93482 21.6369 2.19674C18.5773 0.453301 14.807 0.453301 11.7474 2.19674C8.68786 3.9375 6.80273 7.15697 6.80273 10.6385V15.5132C6.80273 18.0989 7.84701 20.5777 9.69958 22.4067C11.5549 24.2357 14.0693 25.2625 16.6922 25.2625H17.9968C20.0067 25.2625 21.9895 25.7251 23.7878 26.6102C27.4279 28.4071 29.0526 30.6185 29.0526 33.7925V37.4478C29.0526 38.7955 30.1593 39.8865 31.5263 39.8865C32.8934 39.8865 34 38.7955 34 37.4478V33.7925C34 28.7467 31.3066 24.8667 26.0011 22.2516ZM11.7474 15.5132V10.6385C11.7474 7.94579 13.9608 5.76383 16.6922 5.76383C19.4236 5.76383 21.6369 7.94579 21.6369 10.6385V15.5132C21.6369 18.2059 19.4236 20.3878 16.6922 20.3878C13.9608 20.3878 11.7474 18.2059 11.7474 15.5132Z" fill="white"/>
        <path d="M4.22045 24.7571C3.70238 24.2463 2.97817 23.9869 2.25124 24.0511C1.51889 24.1153 0.854354 24.495 0.436644 25.0913C-0.238745 26.1154 -0.0787132 27.4685 0.821805 28.3081L4.52966 31.9634L0.75942 35.6803C-0.0895628 36.4931 -0.24417 37.7874 0.390533 38.7741C0.797394 39.3917 1.46465 39.7982 2.20513 39.8731C2.94833 39.9479 3.68882 39.6912 4.21502 39.1698L8.72847 34.7283C9.47167 33.9957 9.88938 33.0036 9.88938 31.9661C9.88938 30.9286 9.47167 29.9366 8.72847 29.2039L4.22316 24.7571H4.22045Z" fill="white"/>
    </g>
    <defs>
        <clipPath id="clip0_1909_17177">
            <rect width="34" height="39" fill="white" transform="translate(0 0.88916)"/>
        </clipPath>
    </defs>
</svg>
