<svg width="44" height="45" viewBox="0 0 44 45" fill="none" xmlns="http://www.w3.org/2000/svg">
    <g clip-path="url(#clip0_1909_17172)">
        <path d="M39.9352 32.7732C41.5913 32.0538 42.8023 30.5849 43.1938 28.8215C43.4614 27.54 43.264 26.2016 42.6317 25.0506C42.0028 23.8996 40.9824 23.0162 39.7546 22.5511L23.3683 16.3978C21.8997 15.8357 20.2738 15.8658 18.8252 16.4781C17.3766 17.0904 16.2257 18.2381 15.6068 19.6836C14.9879 21.1291 14.9511 22.7552 15.5064 24.2275L21.6588 40.6296C22.0402 41.6501 22.716 42.5301 23.5992 43.1659C24.4824 43.8016 25.5329 44.1596 26.6202 44.1965H26.8042C27.858 44.1965 28.8918 43.892 29.7817 43.3198C30.6716 42.7476 31.3741 41.9346 31.809 40.9709L31.8793 40.827C32.3042 39.9002 32.816 39.0135 33.4048 38.1803L39.3029 44.0793C39.8182 44.5946 40.5174 44.8857 41.2467 44.8857C41.976 44.8857 42.6752 44.5946 43.1904 44.0793C43.7056 43.5641 43.9967 42.8647 43.9967 42.1353C43.9967 41.4059 43.7056 40.7066 43.1904 40.1913L37.2923 34.2923C38.1253 33.7 39.0119 33.1914 39.9386 32.7665L39.9319 32.7732H39.9352ZM26.8075 38.699L20.6551 22.2968C20.5916 22.1161 20.615 21.9187 20.7254 21.7615C20.8358 21.6042 21.0131 21.5139 21.2038 21.5139C21.2741 21.5139 21.3443 21.5239 21.4112 21.5473L37.8042 27.7006C32.9298 29.9157 29.0222 33.8238 26.8075 38.699Z" fill="white"/>
        <path d="M1.375 24.9503C1.375 25.6798 1.66606 26.3791 2.18127 26.8944C2.69647 27.4097 3.39568 27.7008 4.125 27.7008C4.85432 27.7008 5.55353 27.4097 6.06873 26.8944C6.58394 26.3791 6.875 25.6798 6.875 24.9503C6.875 20.3931 8.68491 16.0198 11.9066 12.7976C15.1283 9.57543 19.5009 7.76524 24.0575 7.76524C25.0411 7.76524 25.9477 7.23992 26.4395 6.39003C26.9313 5.54015 26.9313 4.4895 26.4395 3.63961C25.9477 2.78973 25.0411 2.2644 24.0575 2.2644C18.0423 2.2644 12.2713 4.65345 8.01916 8.90958C3.76703 13.1657 1.375 18.9342 1.375 24.9503Z" fill="white"/>
        <path d="M6.875 36.638C6.875 38.5352 5.33607 40.0744 3.43917 40.0744C1.54227 40.0744 0 38.5352 0 36.638C0 34.7408 1.53893 33.2017 3.43583 33.2017C5.33273 33.2017 6.87165 34.7408 6.87165 36.638" fill="white"/>
        <path d="M39.1791 4.32551C39.1791 6.2227 37.6402 7.76186 35.7433 7.76186C33.8464 7.76186 32.3075 6.2227 32.3075 4.32551C32.3075 2.42832 33.8431 0.88916 35.7433 0.88916C37.6436 0.88916 39.1791 2.42832 39.1791 4.32551Z" fill="white"/>
    </g>
    <defs>
        <clipPath id="clip0_1909_17172">
            <rect width="44" height="44" fill="white" transform="translate(0 0.88916)"/>
        </clipPath>
    </defs>
</svg>
